{"title":"Edge of Darkness 2010 DVDrip English Klam","uid":6646209,"size":1487138566,"categoryP":"video","categoryS":"movies","magnet":"?xt=urn:btih:e0a5310ed806fca79fb8c06e6525ab50ac9bdfc6&amp;dn=Edge+of+Darkness+2010+DVDrip+English+Klam&amp;tr=udp%3A%2F%2Ftracker.openbittorrent.com%3A80&amp;tr=udp%3A%2F%2Fopen.demonii.com%3A1337&amp;tr=udp%3A%2F%2Ftracker.coppersurfer.tk%3A6969&amp;tr=udp%3A%2F%2Fexodus.desync.com%3A6969","seeders":0,"leechers":0,"uploader":"Klambake","files":-1,"time":1314958385,"description":"With: Mel Gibson, Ray Winstone en Danny Huston\n\nThomas Craven is een rechercheur, wiens dochter vlak voor zijn huis is vermoord. Men gaat ervan uit dat hijzelf het doelwit was, maar als Craven in het verleden van zijn dochter duikt, blijkt dat ze een gevaarlijke doofpotaffaire heeft ontdekt . Daarbovenop ontdekt hij dat er afspraken zijn tussen het bedrijf waar ze werkte en de overheid, waarbij ze iemand inhuren om het bewijs te vernietigen.\n\nAs homicide detective Thomas Craven investigates the death of his activist daughter, he uncovers not only her secret life, but a corporate cover-up and government collusion that attracts an agent tasked with cleaning up the evidence. \n\n------------------ Dutch Friends ------------------\nYou can find my Friends at: http://www.Film-Test.nl \n------ They got my dutchs subs ---- and more ------\n\nGeneral:\n\nComplete name                    : Edge Of Darkness\\Edge Of Darkness.avi\nFormat                           : AVI\nFormat/Info                      : Audio Video Interleave\nFile size                        : 1.38 GiB\nDuration                         : 1h 51mn\nOverall bit rate                 : 1 776 Kbps\n\nVideo:\n\nFormat                           : MPEG-4 Visual\nFormat profile                   : Simple@L3\nFormat settings, BVOP            : No\nFormat settings, QPel            : No\nFormat settings, GMC             : No warppoints\nFormat settings, Matrix          : Default (H.263)\nCodec ID                         : XVID\nCodec ID/Hint                    : XviD\nDuration                         : 1h 51mn\nBit rate                         : 1 382 Kbps\nWidth                            : 720 pixels\nHeight                           : 304 pixels\nDisplay aspect ratio             : 2.35:1\nFrame rate                       : 25.000 fps\nColor space                      : YUV\nChroma subsampling               : 4:2:0\nBit depth                        : 8 bits\nScan type                        : Progressive\nBits/(Pixel*Frame)               : 0.252\nStream size                      : 1.08 GiB (78%)\nWriting library                  : XviD 1.1.2 (UTC 2006-11-01)\n\nAudio:\n\nFormat                           : AC-3\nFormat/Info                      : Audio Coding 3\nMode extension                   : CM (complete main)\nCodec ID                         : 2000\nDuration                         : 1h 51mn\nBit rate mode                    : Constant\nBit rate                         : 384 Kbps\nChannel(s)                       : 6 channels\nChannel positions                : Front: L C R, Side: L R, LFE\nSampling rate                    : 48.0 KHz\nBit depth                        : 16 bits\nStream size                      : 307 MiB (22%)\nAlignment                        : Aligned on interleaves\nInterleave, duration             : 32 ms (0.80 video frame)\n","torrent":{"xt":"urn:btih:e0a5310ed806fca79fb8c06e6525ab50ac9bdfc6","amp;dn":"Edge+of+Darkness+2010+DVDrip+English+Klam","amp;tr":["udp%3A%2F%2Ftracker.openbittorrent.com%3A80","udp%3A%2F%2Fopen.demonii.com%3A1337","udp%3A%2F%2Ftracker.coppersurfer.tk%3A6969","udp%3A%2F%2Fexodus.desync.com%3A6969"],"infoHash":"e0a5310ed806fca79fb8c06e6525ab50ac9bdfc6","infoHashBuffer":{"type":"Buffer","data":[224,165,49,14,216,6,252,167,159,184,192,110,101,37,171,80,172,155,223,198]},"announce":[],"urlList":[]}}